Coordinates
version=1
nRows=49
nColumns=12
inDegrees=yes

Units are S.I. units (second, meters, Newtons, ...)
Angles are in degrees

endheader
time	SC_y	SC_z	SC_x	AC_y	AC_z	AC_x	GH_y	GH_z	GH_yy	EL_x	PS_y
       0.0              -20.41          28.09          67.06          31.33         -5.432           10.8          74.21          19.56         -75.21          21.44          98.02
   0.02594              -20.41          28.08          67.05          31.33         -5.433           10.8          74.18          19.56         -75.23          21.45          98.03
   0.05187              -20.41          28.08          67.05          31.33         -5.434          10.79          74.15          19.56         -75.25          21.47          98.03
   0.07781              -20.42          28.07          67.05          31.33         -5.436          10.79          74.11          19.56         -75.26          21.49          98.03
    0.1037              -20.42          28.07          67.05          31.33         -5.438          10.79          74.08          19.56         -75.28           21.5          98.03
    0.1297              -20.43          28.06          67.05          31.34          -5.44          10.79          74.04          19.55          -75.3          21.52          98.04
    0.1556              -20.43          28.05          67.04          31.34         -5.441          10.78          73.99          19.55         -75.32          21.54          98.04
    0.1816              -20.44          28.05          67.04          31.34         -5.444          10.78          73.95          19.55         -75.34          21.57          98.04
    0.2075              -20.44          28.04          67.04          31.34         -5.446          10.77           73.9          19.55         -75.37          21.59          98.04
    0.2334              -20.45          28.03          67.04          31.34         -5.448          10.77          73.84          19.54         -75.39          21.61          98.05
    0.2594              -20.45          28.02          67.03          31.34         -5.451          10.76          73.79          19.54         -75.42          21.64          98.05
    0.2853              -20.46          28.01          67.03          31.34         -5.453          10.76          73.72          19.54         -75.45          21.67          98.06
    0.3112              -20.46           28.0          67.03          31.34         -5.456          10.75          73.66          19.53         -75.48           21.7          98.06
    0.3372              -20.47          27.99          67.02          31.34          -5.46          10.75          73.59          19.53         -75.51          21.73          98.07
    0.3631              -20.48          27.98          67.02          31.35         -5.463          10.74          73.51          19.52         -75.55          21.77          98.07
     0.389              -20.49          27.97          67.01          31.35         -5.467          10.74          73.43          19.52         -75.59          21.81          98.08
     0.415               -20.5          27.96          67.01          31.35         -5.471          10.73          73.33          19.51         -75.64          21.85          98.08
    0.4409              -20.51          27.94           67.0          31.35         -5.475          10.72          73.23          19.51         -75.68           21.9          98.09
    0.4668              -20.52          27.92           67.0          31.35          -5.48          10.71          73.13           19.5         -75.73          21.95           98.1
    0.4928              -20.53          27.91          66.99          31.36         -5.485           10.7          73.01          19.49         -75.79          22.01           98.1
    0.5187              -20.54          27.89          66.99          31.36         -5.491          10.69          72.88          19.48         -75.85          22.07          98.11
    0.5447              -20.56          27.86          66.98          31.36         -5.498          10.68          72.73          19.48         -75.92          22.14          98.12
    0.5706              -20.57          27.84          66.97          31.36         -5.505          10.67          72.57          19.47          -76.0          22.21          98.13
    0.5965              -20.59          27.81          66.96          31.37         -5.512          10.65           72.4          19.46         -76.08          22.29          98.14
    0.6225              -20.61          27.78          66.95          31.37         -5.521          10.64           72.2          19.44         -76.18          22.38          98.16
    0.6484              -20.63          27.75          66.94          31.37         -5.531          10.62          71.99          19.43         -76.28          22.49          98.17
    0.6743              -20.66          27.71          66.93          31.38         -5.542           10.6          71.74          19.42          -76.4           22.6          98.19
    0.7003              -20.68          27.67          66.91          31.38         -5.554          10.58          71.47           19.4         -76.53          22.73          98.21
    0.7262              -20.71          27.63           66.9          31.39         -5.568          10.55          71.16          19.38         -76.68          22.88          98.23
    0.7521              -20.75          27.57          66.88           31.4         -5.584          10.52           70.8          19.36         -76.84          23.04          98.25
    0.7781              -20.79          27.51          66.86          31.41         -5.601          10.49           70.4          19.34         -77.04          23.23          98.28
     0.804              -20.84          27.44          66.83          31.41         -5.622          10.45          69.94          19.31         -77.26          23.45          98.31
    0.8299              -20.89          27.36          66.81          31.42         -5.646          10.41          69.41          19.28         -77.51           23.7          98.34
    0.8559              -20.95          27.27          66.78          31.44         -5.673          10.36          68.79          19.24         -77.81          23.99          98.39
    0.8818              -21.02          27.16          66.74          31.45         -5.706           10.3          68.06           19.2         -78.15          24.33          98.43
    0.9078              -21.11          27.03          66.69          31.47         -5.744          10.23          67.21          19.15         -78.56          24.73          98.49
    0.9337              -21.21          26.87          66.64          31.49         -5.789          10.15          66.19          19.09         -79.05          25.21          98.56
    0.9596              -21.33          26.69          66.58          31.51         -5.843          10.05          64.98          19.01         -79.63          25.78          98.64
    0.9856              -21.48          26.47           66.5          31.54         -5.909          9.933           63.5          18.93         -80.33          26.47          98.74
     1.012              -21.66          26.19          66.41          31.57         -5.989          9.788           61.7          18.82         -81.19          27.32          98.86
     1.037              -21.88          25.86          66.29          31.62         -6.088          9.608          59.48          18.69         -82.25          28.36          99.01
     1.063              -22.16          25.44          66.15          31.67         -6.211          9.384          56.72          18.52         -83.57          29.67          99.19
     1.089              -22.51          24.91          65.97          31.74         -6.366          9.102          53.23          18.32         -85.24           31.3          99.42
     1.115              -22.95          24.24          65.74          31.82         -6.564          8.744           48.8          18.05         -87.36          33.39          99.72
     1.141              -23.52          23.38          65.45          31.93         -6.817          8.285          43.12          17.72         -90.07          36.06          100.1
     1.167              -24.25          22.28          65.07          32.07         -7.141          7.696          35.84          17.28         -93.54          39.48          100.6
     1.193              -25.18          20.87          64.59          32.25         -7.556          6.944          26.54          16.73         -97.99          43.85          101.2
     1.219              -26.35           19.1          63.99          32.48         -8.077          5.998          14.84          16.03         -103.6          49.35          102.0
     1.245              -27.78          16.94          63.25          32.75         -8.711          4.845         0.5934          15.19         -110.4          56.05          102.9
